<?xml version="1.0"?>
<svg xmlns="http://www.w3.org/2000/svg" xmlns:xlink="http://www.w3.org/1999/xlink" xmlns:svgjs="http://svgjs.com/svgjs" version="1.1" width="512" height="512" x="0" y="0" viewBox="0 0 65.831 65.831" style="enable-background:new 0 0 512 512" xml:space="preserve" class=""><g transform="matrix(-6.123233995736766e-17,1,1,6.123233995736766e-17,0,0)"><link type="text/css" id="dark-mode" rel="stylesheet"/><style type="text/css" id="dark-mode-custom-style"/>
<g xmlns="http://www.w3.org/2000/svg">
	<g id="group-9svg">
		<path id="path-1_79_" style="" d="M32.684,11.346L5.831,60h60L38.979,11.305    C37.478,9.066,34.184,9.106,32.684,11.346z" fill="#e56a77" data-original="#e56a77" class=""/>
		<path id="path-2_79_" d="M61.5,59h-60c-0.531,0-1.024-0.281-1.293-0.739c-0.27-0.457-0.276-1.023-0.019-1.488L27.041,8.368    c0.02-0.037,0.042-0.072,0.065-0.107c1.02-1.522,2.712-2.43,4.527-2.43c1.744,0,3.297,0.825,4.26,2.265    c0.025,0.036,0.046,0.072,0.067,0.109l26.852,48.57c0.257,0.465,0.249,1.03-0.02,1.487C62.522,58.72,62.031,59,61.5,59z M4.048,56    h54.909L33.369,9.719c-0.543-0.771-1.317-0.888-1.736-0.888c-0.794,0-1.538,0.393-2.003,1.054L4.048,56z" fill="#000000" data-original="#000000" style="" class=""/>
		<path id="path-3_79_" d="M39.08,34.517c-0.375,0-0.751-0.14-1.042-0.421L35.662,31.8l-2.316,2.285    c-0.592,0.581-1.54,0.574-2.122-0.014c-0.582-0.59-0.576-1.54,0.014-2.123l3.36-3.313c0.58-0.57,1.511-0.575,2.095-0.011    l3.429,3.314c0.596,0.576,0.612,1.525,0.037,2.121C39.864,34.364,39.473,34.517,39.08,34.517z" fill="#000000" data-original="#000000" style="" class=""/>
		<path id="path-4_70_" d="M35.686,49c-0.827,0-1.498-0.875-1.5-1.702l-0.035-17.591C34.149,28.879,34.82,28,35.648,28    c0.001,0,0.002,0,0.003,0c0.827,0,1.498,0.772,1.5,1.599l0.035,17.642C37.188,48.07,36.517,49,35.689,49    C35.688,49,35.687,49,35.686,49z" fill="#000000" data-original="#000000" style="" class=""/>
		<path id="path-5_45_" d="M28.623,48.59c-0.376,0-0.752-0.141-1.043-0.422l-3.428-3.313c-0.594-0.575-0.611-1.526-0.035-2.121    c0.576-0.594,1.525-0.613,2.121-0.036l2.374,2.295l2.317-2.285c0.59-0.581,1.539-0.574,2.122,0.015    c0.581,0.59,0.575,1.54-0.015,2.122l-3.359,3.313C29.385,48.446,29.004,48.59,28.623,48.59z" fill="#000000" data-original="#000000" style="" class=""/>
		<path id="path-6_41_" d="M27.997,47.5c-0.828,0-1.5-0.672-1.5-1.5V29c0-0.828,0.672-1.5,1.5-1.5s1.5,0.672,1.5,1.5v17    C29.497,46.828,28.825,47.5,27.997,47.5z" fill="#000000" data-original="#000000" style="" class=""/>
	</g>
</g>
<g xmlns="http://www.w3.org/2000/svg">
</g>
<g xmlns="http://www.w3.org/2000/svg">
</g>
<g xmlns="http://www.w3.org/2000/svg">
</g>
<g xmlns="http://www.w3.org/2000/svg">
</g>
<g xmlns="http://www.w3.org/2000/svg">
</g>
<g xmlns="http://www.w3.org/2000/svg">
</g>
<g xmlns="http://www.w3.org/2000/svg">
</g>
<g xmlns="http://www.w3.org/2000/svg">
</g>
<g xmlns="http://www.w3.org/2000/svg">
</g>
<g xmlns="http://www.w3.org/2000/svg">
</g>
<g xmlns="http://www.w3.org/2000/svg">
</g>
<g xmlns="http://www.w3.org/2000/svg">
</g>
<g xmlns="http://www.w3.org/2000/svg">
</g>
<g xmlns="http://www.w3.org/2000/svg">
</g>
<g xmlns="http://www.w3.org/2000/svg">
</g>
</g></svg>
